<svg preserveAspectRatio="none" width="100%" height="100%" overflow="visible" style="display: block;" viewBox="0 0 22.2563 22.2563" fill="none" xmlns="http://www.w3.org/2000/svg">
<g id="2799186140">
<path id="jkvLM6eMB" d="M17.8516 6.25956C17.8516 5.74766 17.4361 5.33221 16.9242 5.33221H5.33243C4.82053 5.33221 4.40508 5.74766 4.40508 6.25956V7.46139C4.40508 7.89075 4.70925 8.25149 5.09132 8.44902C6.06132 8.94978 6.72344 9.96151 6.72344 11.1281C6.72344 12.2947 6.06132 13.3064 5.09132 13.8072C4.70925 14.0047 4.40508 14.3655 4.40508 14.7948V15.9967C4.40508 16.5086 4.82053 16.924 5.33243 16.924H16.9242C17.4361 16.924 17.8516 16.5086 17.8516 15.9967V14.7948C17.8516 14.3655 17.5474 14.0047 17.1653 13.8072C16.1963 13.3064 15.5332 12.2947 15.5332 11.1281C15.5332 9.96151 16.1963 8.94978 17.1653 8.44902C17.5474 8.25149 17.8516 7.89075 17.8516 7.46139V6.25956Z" stroke="var(--stroke-0, #FAFAFA)" stroke-width="1.85469" stroke-linecap="round" stroke-linejoin="round"/>
</g>
</svg>
